<svg width="512" height="512" viewBox="0 0 512 512" fill="none" xmlns="http://www.w3.org/2000/svg">
  <defs>
    <linearGradient id="bg" x1="40" y1="40" x2="470" y2="480" gradientUnits="userSpaceOnUse">
      <stop stop-color="#07051B"/>
      <stop offset="0.34" stop-color="#160858"/>
      <stop offset="0.68" stop-color="#7A124F"/>
      <stop offset="1" stop-color="#F56A00"/>
    </linearGradient>
    <radialGradient id="warm" cx="0" cy="0" r="1" gradientUnits="userSpaceOnUse" gradientTransform="translate(405 407) rotate(-135) scale(410)">
      <stop stop-color="#F97316" stop-opacity="0.82"/>
      <stop offset="0.42" stop-color="#BE185D" stop-opacity="0.54"/>
      <stop offset="1" stop-color="#05040D" stop-opacity="0"/>
    </radialGradient>
    <linearGradient id="top" x1="77" y1="257" x2="406" y2="117" gradientUnits="userSpaceOnUse">
      <stop stop-color="#3429FF"/>
      <stop offset="0.39" stop-color="#8A19E6"/>
      <stop offset="0.74" stop-color="#EC1E98"/>
      <stop offset="1" stop-color="#FF3D55"/>
    </linearGradient>
    <linearGradient id="side" x1="77" y1="235" x2="279" y2="363" gradientUnits="userSpaceOnUse">
      <stop stop-color="#2817E9"/>
      <stop offset="0.55" stop-color="#3E12A9"/>
      <stop offset="1" stop-color="#210832"/>
    </linearGradient>
    <linearGradient id="bottom" x1="100" y1="351" x2="361" y2="396" gradientUnits="userSpaceOnUse">
      <stop stop-color="#FF147F"/>
      <stop offset="0.52" stop-color="#FF4B2D"/>
      <stop offset="1" stop-color="#FF9800"/>
    </linearGradient>
    <linearGradient id="mid" x1="172" y1="239" x2="329" y2="343" gradientUnits="userSpaceOnUse">
      <stop stop-color="#C015B7"/>
      <stop offset="0.42" stop-color="#FF2B5D"/>
      <stop offset="1" stop-color="#FF7A00"/>
    </linearGradient>
    <linearGradient id="yellow" x1="289" y1="212" x2="426" y2="388" gradientUnits="userSpaceOnUse">
      <stop stop-color="#FFE91E"/>
      <stop offset="0.42" stop-color="#FFC400"/>
      <stop offset="1" stop-color="#FF7A00"/>
    </linearGradient>
  </defs>
  <rect x="18" y="17" width="476" height="478" rx="88" fill="url(#bg)"/>
  <rect x="18" y="17" width="476" height="478" rx="88" fill="url(#warm)"/>
  <path d="M402 143L310 201C300 207 287 207 277 200L264 190C256 184 245 184 236 190L124 265C103 279 75 267 68 243C63 225 70 206 86 195L251 91C275 76 306 77 329 93L404 136C409 139 408 148 402 143Z" fill="url(#top)"/>
  <path d="M86 195C70 206 63 225 68 243C72 258 84 269 98 273L238 364C252 373 270 373 284 363L313 343C326 334 326 314 313 305L184 217L124 265C103 279 75 267 68 243C63 225 70 206 86 195Z" fill="url(#side)" opacity="0.96"/>
  <path d="M184 217L312 304C326 313 327 333 313 343L284 363C270 373 252 373 238 364L151 308C141 301 142 286 153 280L184 217Z" fill="#17082E" fill-opacity="0.58"/>
  <path d="M114 352L175 313C189 304 206 305 219 315L250 336C262 344 277 344 289 336L318 317C339 303 369 314 376 338C381 356 373 376 357 386L247 456C223 471 193 471 170 455L113 418C91 404 91 366 114 352Z" fill="url(#bottom)"/>
  <path d="M180 235L313 326C328 336 327 359 312 368L289 383C275 392 256 392 242 382L157 324C146 316 147 300 158 293L180 235Z" fill="url(#mid)" opacity="0.92"/>
  <path d="M292 213L380 270C422 297 427 357 390 391L329 448C351 416 357 377 342 340L289 223C286 217 286 214 292 213Z" fill="url(#yellow)"/>
  <path d="M292 213L350 251C362 259 363 276 351 284L324 302L289 223C286 217 286 214 292 213Z" fill="#17082E" fill-opacity="0.44"/>
  <path d="M88 195C75 205 67 221 68 238C90 259 126 264 153 246L236 190C245 184 256 184 264 190L276 199L251 91L88 195Z" fill="white" opacity="0.035"/>
  <path d="M114 352L176 313C190 304 206 305 219 315L250 336C262 344 277 344 289 336L315 319C304 340 282 356 256 358C234 360 211 354 192 341L176 330L114 369C96 380 89 403 101 420C87 399 92 366 114 352Z" fill="white" opacity="0.055"/>
</svg>
